<?xml version="1.0" standalone="no"?>
<!DOCTYPE svg PUBLIC "-//W3C//DTD SVG 20010904//EN"
 "http://www.w3.org/TR/2001/REC-SVG-20010904/DTD/svg10.dtd">
<svg version="1.0" xmlns="http://www.w3.org/2000/svg"
 width="100.000000pt" height="100.000000pt" viewBox="0 0 100.000000 100.000000"
 preserveAspectRatio="xMidYMid meet">
<metadata>
Created by potrace 1.11, written by Peter Selinger 2001-2013
</metadata>
<g transform="translate(0.000000,100.000000) scale(0.100000,-0.100000)"
fill="#000000" stroke="none">
<path d="M370 655 c0 -4 21 -74 47 -156 45 -144 48 -150 72 -147 23 3 29 13
61 120 19 64 38 120 41 123 3 3 22 -50 41 -117 32 -114 37 -123 61 -126 25 -3
27 1 68 130 23 73 45 143 50 156 7 19 5 22 -14 22 -19 0 -25 -8 -35 -47 -35
-133 -64 -216 -71 -203 -4 8 -23 68 -41 133 -30 106 -35 117 -56 117 -24 0
-29 -12 -80 -198 -10 -34 -21 -59 -25 -55 -4 4 -23 62 -42 128 -29 102 -37
120 -56 123 -11 2 -21 0 -21 -3z"/>
<path d="M217 583 c-49 -8 -25 -27 32 -24 58 3 81 -10 81 -44 0 -20 -6 -23
-60 -28 -34 -3 -67 -11 -75 -17 -18 -15 -20 -91 -3 -108 16 -16 110 -16 126 0
9 9 12 9 12 0 0 -7 9 -12 20 -12 19 0 20 7 20 98 0 63 -4 104 -12 115 -14 17
-92 29 -141 20z m113 -157 c0 -43 -19 -58 -67 -54 -33 3 -38 6 -41 31 -6 49 3
57 58 57 l50 0 0 -34z"/>
</g>
</svg>
